<svg
   viewBox="0 0 33.866666 33.866665"
   xmlns="http://www.w3.org/2000/svg"
   xmlns:svg="http://www.w3.org/2000/svg">
  <defs
     id="defs1">
    <rect
       x="47.969273"
       y="65.412643"
       width="150.4491"
       height="135.18614"
       id="rect2" />
    <rect
       x="47.969273"
       y="65.412643"
       width="150.4491"
       height="135.18614"
       id="rect2-2" />
    <rect
       x="47.969273"
       y="65.412643"
       width="150.4491"
       height="135.18614"
       id="rect2-9" />
    <rect
       x="47.969273"
       y="65.412643"
       width="150.4491"
       height="135.18614"
       id="rect2-2-7" />
    <rect
       x="47.969273"
       y="65.412643"
       width="150.4491"
       height="135.18614"
       id="rect2-9-1" />
    <rect
       x="47.969273"
       y="65.412643"
       width="150.4491"
       height="135.18614"
       id="rect2-2-7-9" />
    <rect
       x="47.969273"
       y="65.412643"
       width="150.4491"
       height="135.18614"
       id="rect2-9-1-7" />
    <rect
       x="47.969273"
       y="65.412643"
       width="150.4491"
       height="135.18614"
       id="rect2-2-7-9-3" />
    <rect
       x="47.969273"
       y="65.412643"
       width="150.4491"
       height="135.18614"
       id="rect2-9-1-8" />
    <rect
       x="47.969273"
       y="65.412643"
       width="150.4491"
       height="135.18614"
       id="rect2-2-7-9-5" />
    <rect
       x="47.969273"
       y="65.412643"
       width="150.4491"
       height="135.18614"
       id="rect2-9-1-0" />
    <rect
       x="47.969273"
       y="65.412643"
       width="150.4491"
       height="135.18614"
       id="rect2-2-7-9-9" />
    <rect
       x="47.969273"
       y="65.412643"
       width="150.4491"
       height="135.18614"
       id="rect2-9-1-7-6" />
    <rect
       x="47.969273"
       y="65.412643"
       width="150.4491"
       height="135.18614"
       id="rect2-2-7-9-3-3" />
    <rect
       x="47.969273"
       y="65.412643"
       width="246.98424"
       height="307.99596"
       id="rect2-9-1-0-0" />
  </defs>
  <g
     id="layer1">
    <rect
       style="fill:#daf2e3;fill-opacity:1;stroke-width:0.165193"
       id="rect1-6-4-4"
       width="31.75"
       height="6.6145835"
       x="1.0583333"
       y="19.871611" />
    <path
       style="font-weight:900;font-size:84.8114px;font-family:Avenir;-inkscape-font-specification:'Avenir Heavy';white-space:pre;fill:#65d49f;stroke-width:0.199659"
       d="m 4.0724698,10.888134 h 4.7244024 q 1.1853339,0 2.2860008,0.372533 1.100668,0.3556 1.947335,1.100667 0.846666,0.745066 1.354666,1.8796 0.508002,1.117602 0.508002,2.641601 0,1.540935 -0.592667,2.675468 -0.575734,1.117602 -1.507068,1.862669 -0.914401,0.728133 -2.048935,1.100667 -1.1176002,0.3556 -2.2013339,0.3556 H 4.0724698 Z M 7.797805,20.946538 q 0.9990672,0 1.879601,-0.220134 0.897467,-0.237067 1.557867,-0.7112 0.660401,-0.491067 1.032934,-1.253067 0.389467,-0.778935 0.389467,-1.879602 0,-1.083734 -0.338667,-1.862667 Q 11.98034,14.240934 11.37074,13.7668 10.778073,13.275733 9.9483394,13.055599 9.135539,12.818534 8.1534051,12.818534 H 6.2060708 v 8.128004 z m 21.996391,1.930401 h -6.976535 q -1.405468,0 -2.607736,-0.423335 -1.185334,-0.440265 -2.065867,-1.236133 -0.8636,-0.812801 -1.3716,-1.964267 -0.491069,-1.168402 -0.491069,-2.624669 0,-1.320801 0.491069,-2.421468 0.508,-1.1176 1.3716,-1.913466 0.8636,-0.8128 1.998133,-1.253067 1.151468,-0.457201 2.438403,-0.457201 1.286933,0 2.421468,0.457201 1.151466,0.440267 2.015066,1.253067 0.8636,0.795866 1.354669,1.913466 0.508,1.100667 0.508,2.421468 0,0.948268 -0.237067,1.676401 -0.220134,0.711201 -0.592667,1.27 -0.372534,0.541868 -0.829734,0.914401 -0.440268,0.372534 -0.8636,0.626534 v 0.03387 h 3.437467 z M 22.529793,12.513734 q -0.8636,0 -1.608667,0.321733 -0.728134,0.3048 -1.270002,0.863601 -0.524933,0.558799 -0.829732,1.3208 -0.304801,0.762 -0.304801,1.659466 0,0.914402 0.304801,1.71027 0.304799,0.778932 0.846667,1.354667 0.541866,0.558799 1.27,0.880533 0.745067,0.321734 1.6256,0.321734 0.880535,0 1.625602,-0.321734 0.762,-0.321734 1.303867,-0.880533 0.541866,-0.575735 0.846668,-1.354667 0.304799,-0.795868 0.304799,-1.71027 0,-0.897466 -0.304799,-1.659466 -0.304802,-0.762001 -0.846668,-1.3208 -0.541867,-0.558801 -1.303867,-0.863601 -0.745067,-0.321733 -1.659468,-0.321733 z"
       id="text1-5-5-07"
       aria-label="DQ" />
  </g>
</svg>
