<?xml version="1.0" encoding="UTF-8" standalone="no"?>
<!-- Created with Inkscape (http://www.inkscape.org/) -->

<svg
   version="1.1"
   id="svg1"
   width="151.68668"
   height="89.040001"
   viewBox="0 0 151.68668 89.040001"
   xmlns="http://www.w3.org/2000/svg"
   xmlns:svg="http://www.w3.org/2000/svg">
  <defs
     id="defs1" />
  <g
     id="g1">
    <path
       id="path1"
       d="M 16.21114,0 C 16.21114,8.95328 8.95328,16.21114 0,16.21114 -8.95328,16.21114 -16.21114,8.95328 -16.21114,0 c 0,-8.95328 7.25786,-16.21114 16.21114,-16.21114 8.95328,0 16.21114,7.25786 16.21114,16.21114 z"
       style="fill:none;stroke:#000000;stroke-width:0.3985;stroke-linecap:butt;stroke-linejoin:miter;stroke-miterlimit:10;stroke-dasharray:none;stroke-opacity:1"
       transform="matrix(1.3333333,0,0,-1.3333333,85.022667,44.308)" />
    <g
       id="g2"
       aria-label="P&#10;wx"
       transform="matrix(1.3333333,0,0,1.3333333,68.176,37.665333)">
      <path
         id="path2"
         d="M 4.1951484,5.3193594 0.65608594,9.6904531 c -0.0820313,0.1054688 -0.09375,0.1171875 -0.09375,0.1640625 0,0.1054688 0.09375,0.1054688 0.26953125,0.1054688 H 9.0935859 L 9.9490547,7.4756094 H 9.7029609 c -0.2460937,0.75 -0.9140625,1.359375 -1.7695312,1.6523437 -0.1523438,0.046875 -0.84375,0.28125 -2.3085938,0.28125 H 1.3943672 l 3.4570312,-4.265625 c 0.070312,-0.09375 0.09375,-0.1289062 0.09375,-0.1640625 0,-0.035156 -0.011719,-0.046875 -0.070312,-0.140625 L 1.6287422,0.39748438 h 3.9492187 c 1.1367188,0 3.421875,0.0703125 4.125,1.93359372 H 9.9490547 L 9.0935859,-9.53125e-4 H 0.83186719 c -0.26953125,0 -0.26953125,0.011718755 -0.26953125,0.316406255 z m 0,0"
         style="fill:#000000;fill-opacity:1;fill-rule:nonzero;stroke:none" />
      <path
         id="path3"
         d="m 16.781086,4.0976797 c 0.04687,-0.2226563 0.140625,-0.5859375 0.140625,-0.6445313 0,-0.1875 -0.128906,-0.2695312 -0.28125,-0.2695312 -0.117188,0 -0.304688,0.070312 -0.375,0.2695312 -0.02344,0.070312 -0.492188,1.9804688 -0.5625,2.2382813 -0.07031,0.2929687 -0.09375,0.4804687 -0.09375,0.65625 0,0.1054687 0,0.1289062 0.01172,0.1757812 -0.222657,0.5273438 -0.527344,0.84375 -0.914063,0.84375 -0.796875,0 -0.796875,-0.7382812 -0.796875,-0.9140625 0,-0.3164062 0.04687,-0.703125 0.515625,-1.9335937 0.105469,-0.2929688 0.175781,-0.4335938 0.175781,-0.6328125 0,-0.4453125 -0.328125,-0.8203125 -0.820312,-0.8203125 -0.949219,0 -1.3125,1.453125 -1.3125,1.5351562 0,0.1054688 0.09375,0.1054688 0.117187,0.1054688 0.09375,0 0.105469,-0.023437 0.152344,-0.1875 0.269531,-0.9257813 0.667969,-1.2304688 1.007813,-1.2304688 0.09375,0 0.257812,0.011719 0.257812,0.328125 0,0.2460938 -0.117187,0.5273438 -0.1875,0.703125 -0.433594,1.171875 -0.550781,1.6289063 -0.550781,2.0039063 0,0.9140625 0.667969,1.2539062 1.40625,1.2539062 0.175781,0 0.644531,0 1.042969,-0.6914062 0.257812,0.6328125 0.949218,0.6914062 1.242187,0.6914062 0.75,0 1.183594,-0.6210937 1.441406,-1.21875 0.339844,-0.7851562 0.65625,-2.109375 0.65625,-2.5898437 0,-0.5507813 -0.269531,-0.703125 -0.433593,-0.703125 -0.246094,0 -0.503907,0.2578125 -0.503907,0.4804687 0,0.1289063 0.07031,0.1875 0.152344,0.2695313 0.117188,0.1054687 0.363281,0.3632812 0.363281,0.84375 0,0.3398437 -0.292968,1.3125 -0.550781,1.828125 -0.257812,0.5273437 -0.609375,0.8789062 -1.089844,0.8789062 -0.46875,0 -0.738281,-0.3046875 -0.738281,-0.8671875 0,-0.28125 0.07031,-0.5859375 0.105469,-0.7265625 z m 6.123047,0.3632812 c 0.05859,-0.2578125 0.292969,-1.171875 0.984375,-1.171875 0.04687,0 0.292969,0 0.503906,0.1289063 -0.28125,0.046875 -0.480469,0.3046875 -0.480469,0.5390625 0,0.1640625 0.105469,0.3515625 0.375,0.3515625 0.222657,0 0.539063,-0.1875 0.539063,-0.5859375 0,-0.515625 -0.585938,-0.65625 -0.925781,-0.65625 -0.574219,0 -0.925782,0.5273437 -1.042969,0.7617187 -0.257813,-0.65625 -0.785156,-0.7617187 -1.078125,-0.7617187 -1.042969,0 -1.605469,1.2890625 -1.605469,1.5351562 0,0.1054688 0.105469,0.1054688 0.117188,0.1054688 0.08203,0 0.117187,-0.023437 0.128906,-0.1171875 0.339844,-1.0546875 0.996094,-1.3007813 1.335937,-1.3007813 0.1875,0 0.539063,0.09375 0.539063,0.6679688 0,0.3046875 -0.164063,0.9726562 -0.539063,2.3671875 -0.152343,0.6210937 -0.503906,1.0429687 -0.949218,1.0429687 -0.05859,0 -0.28125,0 -0.492188,-0.1289062 0.246094,-0.058594 0.46875,-0.2695313 0.46875,-0.5390625 0,-0.2695313 -0.222656,-0.3515625 -0.375,-0.3515625 -0.292969,0 -0.539062,0.2578125 -0.539062,0.5742187 0,0.4570313 0.492187,0.65625 0.9375,0.65625 0.65625,0 1.007812,-0.6914062 1.042968,-0.75 0.117188,0.3632813 0.480469,0.75 1.078125,0.75 1.019532,0 1.59375,-1.2773437 1.59375,-1.5351562 0,-0.09375 -0.09375,-0.09375 -0.128906,-0.09375 -0.08203,0 -0.105469,0.035156 -0.128906,0.1054687 -0.328125,1.0664063 -0.996094,1.3125 -1.324219,1.3125 -0.386719,0 -0.539062,-0.328125 -0.539062,-0.65625 0,-0.2226562 0.05859,-0.4453125 0.164062,-0.8789062 z m 0,0"
         style="fill:#000000;fill-opacity:1;fill-rule:nonzero;stroke:none" />
    </g>
    <g
       id="g3"
       aria-label="x&#10;1"
       transform="matrix(1.3333333,0,0,1.3333333,2.6573333,8.376)">
      <path
         id="path4"
         d="m 3.3273125,-3.0124687 c 0.058594,-0.2578125 0.2929687,-1.171875 0.984375,-1.171875 0.046875,0 0.2929687,0 0.5039062,0.1289062 -0.28125,0.046875 -0.4804687,0.3046875 -0.4804687,0.5390625 0,0.1640625 0.1054687,0.3515625 0.375,0.3515625 0.2226562,0 0.5390625,-0.1875 0.5390625,-0.5859375 0,-0.515625 -0.5859375,-0.65625 -0.9257813,-0.65625 -0.5742187,0 -0.9257812,0.5273438 -1.0429687,0.7617188 C 3.022625,-4.3015312 2.4952812,-4.407 2.2023125,-4.407 c -1.0429688,0 -1.60546875,1.2890625 -1.60546875,1.5351563 0,0.1054687 0.10546875,0.1054687 0.1171875,0.1054687 0.0820313,0 0.1171875,-0.023437 0.12890625,-0.1171875 0.3398437,-1.0546875 0.9960937,-1.3007812 1.3359375,-1.3007812 0.1875,0 0.5390625,0.09375 0.5390625,0.6679687 0,0.3046875 -0.1640625,0.9726563 -0.5390625,2.3671875 -0.1523438,0.62109375 -0.5039063,1.04296875 -0.9492188,1.04296875 -0.058594,0 -0.28124995,0 -0.49218745,-0.12890625 0.24609375,-0.0585937 0.46874995,-0.26953125 0.46874995,-0.5390625 0,-0.2695312 -0.2226562,-0.3515625 -0.37499995,-0.3515625 -0.29296875,0 -0.5390625,0.2578125 -0.5390625,0.57421875 0,0.45703125 0.4921875,0.65625 0.93749995,0.65625 0.65625,0 1.0078125,-0.69140625 1.0429688,-0.75 0.1171875,0.36328125 0.4804687,0.75 1.078125,0.75 1.0195312,0 1.59375,-1.27734375 1.59375,-1.53515625 0,-0.09375 -0.09375,-0.09375 -0.1289063,-0.09375 -0.082031,0 -0.1054687,0.035156 -0.1289062,0.1054688 -0.328125,1.0664062 -0.9960938,1.31249995 -1.3242188,1.31249995 -0.3867187,0 -0.5390625,-0.328125 -0.5390625,-0.65625 0,-0.22265625 0.058594,-0.44531245 0.1640625,-0.87890625 z m 0,0"
         style="fill:#000000;fill-opacity:1;fill-rule:nonzero;stroke:none" />
      <path
         id="path5"
         d="m 8.0236016,-2.9362969 c 0,-0.1875 -0.011719,-0.1992187 -0.2109375,-0.1992187 -0.4453125,0.4335937 -1.078125,0.4453125 -1.359375,0.4453125 v 0.2460937 c 0.1640625,0 0.6210937,0 1.0078125,-0.1875 v 3.55078128 c 0,0.23437502 0,0.32812502 -0.6914063,0.32812502 H 6.5001641 v 0.2460937 c 0.1289062,-0.011719 0.984375,-0.023437 1.2421875,-0.023437 0.2109375,0 1.0898437,0.011719 1.2421875,0.023437 V 1.2472969 H 8.7267266 c -0.703125,0 -0.703125,-0.09375 -0.703125,-0.32812502 z m 0,0"
         style="fill:#000000;fill-opacity:1;fill-rule:nonzero;stroke:none" />
    </g>
    <g
       id="g5"
       aria-label="x&#10;2"
       transform="matrix(1.3333333,0,0,1.3333333,2.6573333,46.170667)">
      <path
         id="path6"
         d="m 3.3273125,-3.0108125 c 0.058594,-0.2578125 0.2929687,-1.171875 0.984375,-1.171875 0.046875,0 0.2929687,0 0.5039062,0.1289063 -0.28125,0.046875 -0.4804687,0.3046874 -0.4804687,0.5390624 0,0.1640625 0.1054687,0.3515625 0.375,0.3515625 0.2226562,0 0.5390625,-0.1875 0.5390625,-0.5859375 0,-0.5156249 -0.5859375,-0.6562499 -0.9257813,-0.6562499 -0.5742187,0 -0.9257812,0.5273437 -1.0429687,0.7617187 -0.2578125,-0.65625 -0.7851563,-0.7617187 -1.078125,-0.7617187 -1.0429688,0 -1.60546875,1.2890624 -1.60546875,1.5351562 0,0.1054687 0.10546875,0.1054687 0.1171875,0.1054687 0.0820313,0 0.1171875,-0.023437 0.12890625,-0.1171875 0.3398437,-1.0546875 0.9960937,-1.3007812 1.3359375,-1.3007812 0.1875,0 0.5390625,0.09375 0.5390625,0.6679687 0,0.3046875 -0.1640625,0.9726563 -0.5390625,2.3671875 -0.1523438,0.6210938 -0.5039063,1.0429688 -0.9492188,1.0429688 -0.058594,0 -0.28124995,0 -0.49218745,-0.12890625 C 0.9835625,-0.2920625 1.2062187,-0.503 1.2062187,-0.77253125 c 0,-0.26953125 -0.2226562,-0.35156255 -0.37499995,-0.35156255 -0.29296875,0 -0.5390625,0.25781255 -0.5390625,0.5742188 0,0.45703125 0.4921875,0.65625 0.93749995,0.65625 0.65625,0 1.0078125,-0.69140625 1.0429688,-0.75 0.1171875,0.36328125 0.4804687,0.75 1.078125,0.75 1.0195312,0 1.59375,-1.2773438 1.59375,-1.5351562 0,-0.09375 -0.09375,-0.09375 -0.1289063,-0.09375 -0.082031,0 -0.1054687,0.035156 -0.1289062,0.1054687 -0.328125,1.06640625 -0.9960938,1.3125 -1.3242188,1.3125 -0.3867187,0 -0.5390625,-0.328125 -0.5390625,-0.65625 0,-0.22265625 0.058594,-0.4453125 0.1640625,-0.8789062 z m 0,0"
         style="fill:#000000;fill-opacity:1;fill-rule:nonzero;stroke:none" />
      <path
         id="path7"
         d="m 9.2071953,0.22942187 h -0.234375 c -0.023437,0.15234375 -0.082031,0.5625 -0.1757812,0.6328125 -0.058594,0.0351563 -0.5976563,0.0351563 -0.6914063,0.0351563 H 6.8165703 c 0.7382813,-0.64453125 0.984375,-0.84375 1.3945313,-1.171875 0.515625,-0.41015625 0.9960937,-0.84374997 0.9960937,-1.49999997 0,-0.84375 -0.7382812,-1.359375 -1.6289062,-1.359375 -0.8671875,0 -1.453125,0.609375 -1.453125,1.2421875 0,0.3632813 0.3046875,0.3984375 0.375,0.3984375 0.1640625,0 0.375,-0.1171875 0.375,-0.375 0,-0.1289062 -0.058594,-0.3632812 -0.421875,-0.3632812 0.2226562,-0.5039063 0.6914062,-0.65625 1.0195312,-0.65625 0.703125,0 1.0664063,0.5507812 1.0664063,1.1132812 0,0.609375 -0.4335938,1.08984372 -0.65625,1.33593747 l -1.6875,1.66406253 c -0.070312,0.058594 -0.070312,0.070312 -0.070312,0.2695313 h 2.8828125 z m 0,0"
         style="fill:#000000;fill-opacity:1;fill-rule:nonzero;stroke:none" />
    </g>
    <path
       id="path8"
       d="m 2.9287187,-6.3748906 c 0,-0.234375 0,-0.2578125 -0.234375,-0.2578125 -0.609375,0.6328125 -1.4882812,0.6328125 -1.80468745,0.6328125 v 0.3164062 c 0.19921875,0 0.78515625,0 1.30078125,-0.2578125 v 5.15625002 c 0,0.3515625 -0.035156,0.48046875 -0.9257813,0.48046875 H 0.94825 V 1.09375e-4 C 1.2998125,-0.03504688 2.1552812,-0.03504688 2.5537187,-0.03504688 c 0.3984375,0 1.265625,0 1.6171875,0.035156255 V -0.30457813 H 3.8545 c -0.9023438,0 -0.9257813,-0.1171875 -0.9257813,-0.48046875 z m 0,0"
       style="fill:#000000;fill-opacity:1;fill-rule:nonzero;stroke:none"
       aria-label="1"
       transform="matrix(1.3333333,0,0,1.3333333,6.1106667,86.382667)" />
    <path
       id="path9"
       d="M -47.6268,23.8152 -16.69057,8.34515"
       style="fill:none;stroke:#000000;stroke-width:0.3985;stroke-linecap:butt;stroke-linejoin:miter;stroke-miterlimit:10;stroke-dasharray:none;stroke-opacity:1"
       transform="matrix(1.3333333,0,0,-1.3333333,85.022667,44.308)" />
    <path
       id="path10"
       d="M -1.19551,1.59401 C -1.09587,0.99626 0,0.09961 0.29886,0 0,-0.09961 -1.09587,-0.99626 -1.19551,-1.59401"
       style="fill:none;stroke:#000000;stroke-width:0.31879;stroke-linecap:round;stroke-linejoin:round;stroke-miterlimit:10;stroke-dasharray:none;stroke-opacity:1"
       transform="matrix(1.19248,0.59629333,0.59629333,-1.19248,62.76856,33.181107)" />
    <g
       id="g10"
       aria-label="w&#10;1"
       transform="matrix(1.3333333,0,0,1.3333333,34.684,34.037333)">
      <path
         id="path11"
         d="m 4.6051641,-3.3737031 c 0.046875,-0.2226563 0.140625,-0.5859375 0.140625,-0.6445313 0,-0.1875 -0.1289063,-0.2695312 -0.28125,-0.2695312 -0.1171875,0 -0.3046875,0.070312 -0.375,0.2695312 -0.023437,0.070312 -0.4921875,1.9804688 -0.5625,2.2382813 -0.070312,0.2929687 -0.09375,0.4804687 -0.09375,0.65625 0,0.1054687 0,0.12890623 0.011719,0.17578123 -0.2226562,0.52734375 -0.5273437,0.84375 -0.9140625,0.84375 -0.796875,0 -0.796875,-0.73828125 -0.796875,-0.91406253 0,-0.3164062 0.046875,-0.703125 0.515625,-1.9335937 0.1054688,-0.2929688 0.1757813,-0.4335938 0.1757813,-0.6328125 0,-0.4453125 -0.328125,-0.8203125 -0.8203125,-0.8203125 -0.94921879,0 -1.31250004,1.453125 -1.31250004,1.5351562 0,0.1054688 0.09375,0.1054688 0.1171875,0.1054688 0.09375,0 0.10546875,-0.023437 0.15234375,-0.1875 0.26953125,-0.9257813 0.66796879,-1.2304688 1.00781249,-1.2304688 0.09375,0 0.2578125,0.011719 0.2578125,0.328125 0,0.2460938 -0.1171875,0.5273438 -0.1875,0.703125 -0.4335937,1.171875 -0.5507812,1.6289063 -0.5507812,2.0039063 0,0.91406248 0.6679687,1.25390623 1.40625,1.25390623 0.1757812,0 0.6445312,0 1.0429687,-0.69140625 0.2578125,0.6328125 0.9492188,0.69140625 1.2421875,0.69140625 0.75,0 1.1835938,-0.62109375 1.4414063,-1.21875003 0.3398437,-0.7851562 0.65625,-2.109375 0.65625,-2.5898437 0,-0.5507813 -0.2695313,-0.703125 -0.4335938,-0.703125 -0.2460937,0 -0.5039062,0.2578125 -0.5039062,0.4804687 0,0.1289063 0.070312,0.1875 0.1523437,0.2695313 0.1171875,0.1054687 0.3632813,0.3632812 0.3632813,0.84375 0,0.3398437 -0.2929688,1.3125 -0.5507813,1.82812498 -0.2578125,0.52734375 -0.609375,0.87890625 -1.0898437,0.87890625 -0.46875,0 -0.7382813,-0.3046875 -0.7382813,-0.8671875 0,-0.28125003 0.070312,-0.58593753 0.1054688,-0.72656253 z m 0,0"
         style="fill:#000000;fill-opacity:1;fill-rule:nonzero;stroke:none" />
      <path
         id="path12"
         d="m 9.4625859,-2.93425 c 0,-0.1875 -0.011719,-0.1992187 -0.2109375,-0.1992187 -0.4453125,0.4335937 -1.078125,0.4453125 -1.359375,0.4453125 v 0.2460937 c 0.1640625,0 0.6210938,0 1.0078125,-0.1875 v 3.55078125 c 0,0.23437505 0,0.32812505 -0.6914062,0.32812505 H 7.9391484 V 1.4954375 C 8.0680547,1.4837188 8.9235234,1.472 9.1813359,1.472 c 0.2109375,0 1.0898441,0.011719 1.2421871,0.023437 V 1.2493438 h -0.257812 c -0.7031251,0 -0.7031251,-0.09375 -0.7031251,-0.32812505 z m 0,0"
         style="fill:#000000;fill-opacity:1;fill-rule:nonzero;stroke:none" />
    </g>
    <path
       id="path13"
       d="m -47.6268,0 h 28.96483"
       style="fill:none;stroke:#000000;stroke-width:0.3985;stroke-linecap:butt;stroke-linejoin:miter;stroke-miterlimit:10;stroke-dasharray:none;stroke-opacity:1"
       transform="matrix(1.3333333,0,0,-1.3333333,85.022667,44.308)" />
    <path
       id="path14"
       d="M -1.19551,1.59401 C -1.09587,0.99626 0,0.09961 0.29886,0 0,-0.09961 -1.09587,-0.99626 -1.19551,-1.59401"
       style="fill:none;stroke:#000000;stroke-width:0.31879;stroke-linecap:round;stroke-linejoin:round;stroke-miterlimit:10;stroke-dasharray:none;stroke-opacity:1"
       transform="matrix(1.3333333,0,0,-1.3333333,60.14004,44.308)" />
    <g
       id="g14"
       aria-label="w&#10;2"
       transform="matrix(1.3333333,0,0,1.3333333,33.401333,55.34)">
      <path
         id="path15"
         d="m 4.6062266,-3.3751172 c 0.046875,-0.2226562 0.140625,-0.5859375 0.140625,-0.6445312 0,-0.1875 -0.1289063,-0.2695313 -0.28125,-0.2695313 -0.1171875,0 -0.3046875,0.070312 -0.375,0.2695313 -0.023437,0.070313 -0.4921875,1.9804687 -0.5625,2.2382812 -0.070312,0.2929688 -0.09375,0.4804688 -0.09375,0.65625 0,0.1054688 0,0.12890626 0.011719,0.17578126 -0.2226562,0.52734375 -0.5273437,0.84375 -0.9140625,0.84375 -0.796875,0 -0.796875,-0.73828125 -0.796875,-0.91406246 0,-0.3164063 0.046875,-0.703125 0.515625,-1.9335938 0.1054688,-0.2929687 0.1757813,-0.4335937 0.1757813,-0.6328125 0,-0.4453125 -0.328125,-0.8203125 -0.8203125,-0.8203125 -0.94921879,0 -1.31250004,1.453125 -1.31250004,1.5351563 0,0.1054687 0.09375,0.1054687 0.1171875,0.1054687 0.09375,0 0.10546875,-0.023437 0.15234375,-0.1875 0.26953125,-0.9257812 0.66796879,-1.2304687 1.00781249,-1.2304687 0.09375,0 0.2578125,0.011719 0.2578125,0.328125 0,0.2460937 -0.1171875,0.5273437 -0.1875,0.703125 -0.4335937,1.171875 -0.5507812,1.6289062 -0.5507812,2.0039062 0,0.91406251 0.6679687,1.25390626 1.40625,1.25390626 0.1757812,0 0.6445312,0 1.0429687,-0.69140625 0.2578125,0.6328125 0.9492188,0.69140625 1.2421875,0.69140625 0.75,0 1.1835938,-0.62109375 1.4414063,-1.21874996 0.3398437,-0.7851563 0.65625,-2.109375 0.65625,-2.5898438 0,-0.5507812 -0.2695313,-0.703125 -0.4335938,-0.703125 -0.2460937,0 -0.5039062,0.2578125 -0.5039062,0.4804688 0,0.1289062 0.070312,0.1875 0.1523437,0.2695312 0.1171875,0.1054688 0.3632813,0.3632813 0.3632813,0.84375 0,0.3398438 -0.2929688,1.3125 -0.5507813,1.82812501 -0.2578125,0.52734375 -0.609375,0.87890625 -1.0898437,0.87890625 -0.46875,0 -0.7382813,-0.3046875 -0.7382813,-0.8671875 0,-0.28124996 0.070312,-0.58593746 0.1054688,-0.72656246 z m 0,0"
         style="fill:#000000;fill-opacity:1;fill-rule:nonzero;stroke:none" />
      <path
         id="path16"
         d="m 10.647242,0.22839844 h -0.234375 c -0.02344,0.15234375 -0.08203,0.5625 -0.175781,0.6328125 -0.05859,0.0351563 -0.5976563,0.0351563 -0.6914063,0.0351563 H 8.2566172 c 0.7382812,-0.64453125 0.984375,-0.84375 1.3945312,-1.171875 0.5156246,-0.41015625 0.9960936,-0.84374994 0.9960936,-1.49999994 0,-0.8437501 -0.7382811,-1.3593751 -1.6289061,-1.3593751 -0.8671875,0 -1.453125,0.609375 -1.453125,1.2421876 0,0.3632812 0.3046875,0.3984375 0.375,0.3984375 0.1640625,0 0.375,-0.1171875 0.375,-0.375 0,-0.1289063 -0.058594,-0.3632814 -0.421875,-0.3632814 0.2226563,-0.5039062 0.6914063,-0.65625 1.0195313,-0.65625 0.703125,0 1.0664062,0.5507813 1.0664062,1.1132813 0,0.609375 -0.4335937,1.08984379 -0.65625,1.33593754 l -1.6875,1.66406246 c -0.070312,0.058594 -0.070312,0.070312 -0.070312,0.2695312 h 2.8828126 z m 0,0"
         style="fill:#000000;fill-opacity:1;fill-rule:nonzero;stroke:none" />
    </g>
    <path
       id="path17"
       d="m -50.21782,-25.1102 33.52725,16.76505"
       style="fill:none;stroke:#000000;stroke-width:0.3985;stroke-linecap:butt;stroke-linejoin:miter;stroke-miterlimit:10;stroke-dasharray:none;stroke-opacity:1"
       transform="matrix(1.3333333,0,0,-1.3333333,85.022667,44.308)" />
    <path
       id="path18"
       d="M -1.19551,1.59401 C -1.09587,0.99626 0,0.09961 0.29886,0 0,-0.09961 -1.09587,-0.99626 -1.19551,-1.59401"
       style="fill:none;stroke:#000000;stroke-width:0.31879;stroke-linecap:round;stroke-linejoin:round;stroke-miterlimit:10;stroke-dasharray:none;stroke-opacity:1"
       transform="matrix(1.19248,-0.59626667,-0.59626667,-1.19248,62.76856,55.434867)" />
    <g
       id="g18"
       aria-label="w&#10;b"
       transform="matrix(1.3333333,0,0,1.3333333,33.268,77.506667)">
      <path
         id="path19"
         d="m 4.6066172,-3.3741406 c 0.046875,-0.2226563 0.140625,-0.5859375 0.140625,-0.6445313 0,-0.1875 -0.1289063,-0.2695312 -0.28125,-0.2695312 -0.1171875,0 -0.3046875,0.070312 -0.375,0.2695312 -0.023437,0.070312 -0.4921875,1.9804688 -0.5625,2.2382813 -0.070312,0.2929687 -0.09375,0.4804687 -0.09375,0.65625 0,0.1054687 0,0.12890623 0.011719,0.17578123 -0.2226562,0.52734375 -0.5273437,0.84375 -0.9140625,0.84375 -0.796875,0 -0.796875,-0.73828125 -0.796875,-0.91406253 0,-0.3164062 0.046875,-0.703125 0.515625,-1.9335937 0.1054688,-0.2929688 0.1757813,-0.4335938 0.1757813,-0.6328125 0,-0.4453125 -0.328125,-0.8203125 -0.8203125,-0.8203125 -0.94921876,0 -1.31250001,1.453125 -1.31250001,1.5351562 0,0.1054688 0.09375,0.1054688 0.1171875,0.1054688 0.09375,0 0.10546875,-0.023437 0.15234375,-0.1875 0.26953125,-0.9257813 0.66796876,-1.2304688 1.00781246,-1.2304688 0.09375,0 0.2578125,0.011719 0.2578125,0.328125 0,0.2460938 -0.1171875,0.5273438 -0.1875,0.703125 -0.4335937,1.171875 -0.5507812,1.6289063 -0.5507812,2.0039063 0,0.91406248 0.6679687,1.25390623 1.40625,1.25390623 0.1757812,0 0.6445312,0 1.0429687,-0.69140625 0.2578125,0.6328125 0.9492188,0.69140625 1.2421875,0.69140625 0.75,0 1.1835938,-0.62109375 1.4414063,-1.21875003 0.3398437,-0.7851562 0.65625,-2.109375 0.65625,-2.5898437 0,-0.5507813 -0.2695313,-0.703125 -0.4335938,-0.703125 -0.2460937,0 -0.5039062,0.2578125 -0.5039062,0.4804687 0,0.1289063 0.070312,0.1875 0.1523437,0.2695313 0.1171875,0.1054687 0.3632813,0.3632812 0.3632813,0.84375 0,0.3398437 -0.2929688,1.3125 -0.5507813,1.82812498 -0.2578125,0.52734375 -0.609375,0.87890625 -1.0898437,0.87890625 -0.46875,0 -0.7382813,-0.3046875 -0.7382813,-0.8671875 0,-0.28125003 0.070312,-0.58593753 0.1054688,-0.72656253 z m 0,0"
         style="fill:#000000;fill-opacity:1;fill-rule:nonzero;stroke:none" />
      <path
         id="path20"
         d="m 8.9718516,-3.1339062 c 0.011719,-0.011719 0.023437,-0.1054688 0.023437,-0.1171875 0,-0.035156 -0.023437,-0.09375 -0.1054688,-0.09375 -0.140625,0 -0.7148437,0.058594 -0.890625,0.070312 -0.058594,0.011719 -0.1523437,0.011719 -0.1523437,0.1640625 0,0.09375 0.09375,0.09375 0.1757812,0.09375 0.3398438,0 0.3398438,0.046875 0.3398438,0.1054687 0,0.046875 -0.070312,0.328125 -0.1171875,0.4921875 L 8.0929453,-1.78625 c -0.070312,0.2460938 -0.4570312,1.76953125 -0.46875,1.86328125 -0.035156,0.1640625 -0.035156,0.2578125 -0.035156,0.33984375 0,0.703125 0.4453125,1.1484375 1.03125,1.1484375 0.8671875,0 1.7929687,-0.94921875 1.7929687,-1.98046875 0,-0.82031245 -0.5625,-1.16015625 -1.0429687,-1.16015625 -0.3632813,0 -0.6679688,0.1992188 -0.8789063,0.375 z m -0.3515625,4.5 c -0.3398438,0 -0.5273438,-0.2929688 -0.5273438,-0.70312505 0,-0.2578125 0.058594,-0.50390625 0.2578125,-1.2890625 0.035156,-0.12890625 0.035156,-0.140625 0.1640625,-0.29296875 0.2695313,-0.3164062 0.5859375,-0.46875 0.8320313,-0.46875 0.2695312,0 0.515625,0.2109375 0.515625,0.6796875 0,0.28125 -0.1523438,0.99609375 -0.3632813,1.40625 -0.1757812,0.3398438 -0.515625,0.6679688 -0.8789062,0.6679688 z m 0,0"
         style="fill:#000000;fill-opacity:1;fill-rule:nonzero;stroke:none" />
    </g>
    <path
       id="path21"
       d="m 18.20369,0 h 9.68483"
       style="fill:none;stroke:#000000;stroke-width:0.3985;stroke-linecap:butt;stroke-linejoin:miter;stroke-miterlimit:10;stroke-dasharray:none;stroke-opacity:1"
       transform="matrix(1.3333333,0,0,-1.3333333,85.022667,44.308)" />
    <path
       id="path22"
       d="M -1.19551,1.59401 C -1.09587,0.99626 0,0.09961 0.29886,0 0,-0.09961 -1.09587,-0.99626 -1.19551,-1.59401"
       style="fill:none;stroke:#000000;stroke-width:0.31879;stroke-linecap:round;stroke-linejoin:round;stroke-miterlimit:10;stroke-dasharray:none;stroke-opacity:1"
       transform="matrix(1.3333333,0,0,-1.3333333,122.20736,44.308)" />
    <g
       id="g22"
       aria-label="f(x)"
       transform="matrix(1.3333333,0,0,1.3333333,123.17333,47.629333)">
      <path
         id="path23"
         d="M 3.6551563,-3.9846953 H 4.510625 c 0.1992188,0 0.3046875,0 0.3046875,-0.1992188 0,-0.1054687 -0.1054687,-0.1054687 -0.2695312,-0.1054687 H 3.71375 l 0.2109375,-1.1367188 c 0.035156,-0.2109375 0.1757813,-0.9140625 0.234375,-1.0429687 0.09375,-0.1875 0.2578125,-0.3398438 0.46875,-0.3398438 0.046875,0 0.3046875,0 0.4921875,0.1875 -0.4335937,0.035156 -0.5390625,0.3867188 -0.5390625,0.5390625 0,0.2226563 0.1757813,0.3398438 0.3632813,0.3398438 0.2695312,0 0.5507812,-0.2109375 0.5507812,-0.5976563 0,-0.4570312 -0.4570312,-0.6796875 -0.8671875,-0.6796875 -0.3398437,0 -0.9609375,0.1757813 -1.265625,1.1601563 -0.058594,0.2109375 -0.082031,0.3164062 -0.328125,1.5703125 H 2.354375 c -0.1992187,0 -0.3046875,0 -0.3046875,0.1875 0,0.1171875 0.09375,0.1171875 0.28125,0.1171875 h 0.65625 l -0.75,3.93749999 C 2.0614063,0.91374219 1.8973438,1.8278047 1.37,1.8278047 c -0.035156,0 -0.28125,0 -0.46875,-0.1875 0.4570313,-0.023437 0.5390625,-0.3867188 0.5390625,-0.5390625 0,-0.22265626 -0.1757812,-0.33984376 -0.3632812,-0.33984376 -0.25781255,0 -0.5507813,0.2109375 -0.5507813,0.59765626 0,0.4453125 0.43359375,0.6796875 0.84375,0.6796875 0.5507813,0 0.9492188,-0.5859375 1.125,-0.9609375 0.328125,-0.63281251 0.5507813,-1.83984376 0.5625,-1.91015626 z m 0,0"
         style="fill:#000000;fill-opacity:1;fill-rule:nonzero;stroke:none" />
      <path
         id="path24"
         d="m 9.2420703,2.3903047 c 0,-0.035156 0,-0.046875 -0.1640625,-0.2226563 -1.2421875,-1.25390621 -1.5703125,-3.12890621 -1.5703125,-4.6640625 0,-1.7226562 0.3867188,-3.4570312 1.6054688,-4.7109375 0.1289062,-0.1171875 0.1289062,-0.1289062 0.1289062,-0.1640625 0,-0.070312 -0.035156,-0.1054687 -0.09375,-0.1054687 -0.1054687,0 -0.9960937,0.6796875 -1.5820312,1.9453125 -0.515625,1.1015625 -0.6328125,2.203125 -0.6328125,3.0351562 0,0.7851563 0.1171875,1.99218754 0.65625,3.11718754 0.5976562,1.21874996 1.453125,1.87499996 1.5585937,1.87499996 0.058594,0 0.09375,-0.035156 0.09375,-0.1054687 z m 0,0"
         style="fill:#000000;fill-opacity:1;fill-rule:nonzero;stroke:none" />
      <path
         id="path25"
         d="m 13.153203,-3.0120391 c 0.05859,-0.2578125 0.292969,-1.171875 0.984375,-1.171875 0.04687,0 0.292969,0 0.503906,0.1289063 -0.28125,0.046875 -0.480468,0.3046875 -0.480468,0.5390625 0,0.1640625 0.105468,0.3515625 0.375,0.3515625 0.222656,0 0.539062,-0.1875 0.539062,-0.5859375 0,-0.515625 -0.585937,-0.65625 -0.925781,-0.65625 -0.574219,0 -0.925781,0.5273437 -1.042969,0.7617187 -0.257812,-0.65625 -0.785156,-0.7617187 -1.078125,-0.7617187 -1.042969,0 -1.605469,1.2890625 -1.605469,1.5351562 0,0.1054688 0.105469,0.1054688 0.117188,0.1054688 0.08203,0 0.117187,-0.023437 0.128906,-0.1171875 0.339844,-1.0546875 0.996094,-1.3007813 1.335938,-1.3007813 0.1875,0 0.539062,0.09375 0.539062,0.6679688 0,0.3046875 -0.164062,0.9726562 -0.539062,2.3671875 -0.152344,0.62109374 -0.503907,1.04296874 -0.949219,1.04296874 -0.05859,0 -0.28125,0 -0.492188,-0.12890625 0.246094,-0.0585938 0.46875,-0.26953125 0.46875,-0.5390625 0,-0.26953129 -0.222656,-0.35156249 -0.375,-0.35156249 -0.292968,0 -0.539062,0.25781249 -0.539062,0.57421874 0,0.45703125 0.492187,0.65625 0.9375,0.65625 0.65625,0 1.007812,-0.69140625 1.042969,-0.75 0.117187,0.36328125 0.480468,0.75 1.078125,0.75 1.019531,0 1.59375,-1.27734374 1.59375,-1.53515624 0,-0.09375 -0.09375,-0.09375 -0.128907,-0.09375 -0.08203,0 -0.105468,0.035156 -0.128906,0.1054687 -0.328125,1.06640629 -0.996094,1.31250004 -1.324219,1.31250004 -0.386718,0 -0.539062,-0.328125 -0.539062,-0.65625 0,-0.22265625 0.05859,-0.44531254 0.164062,-0.87890624 z m 0,0"
         style="fill:#000000;fill-opacity:1;fill-rule:nonzero;stroke:none" />
      <path
         id="path26"
         d="m 18.400273,-2.4964141 c 0,-0.7734375 -0.117187,-1.9804687 -0.65625,-3.1054687 -0.597656,-1.21875 -1.464843,-1.875 -1.558593,-1.875 -0.05859,0 -0.105469,0.046875 -0.105469,0.1054687 0,0.035156 0,0.046875 0.199219,0.234375 0.972656,0.984375 1.535156,2.5664063 1.535156,4.640625 0,1.71093754 -0.363281,3.45703129 -1.59375,4.7226563 -0.140625,0.1171875 -0.140625,0.1289062 -0.140625,0.1640625 0,0.058594 0.04687,0.1054687 0.105469,0.1054687 0.09375,0 0.996093,-0.6796875 1.582031,-1.94531246 0.503906,-1.1015625 0.632812,-2.20312504 0.632812,-3.04687504 z m 0,0"
         style="fill:#000000;fill-opacity:1;fill-rule:nonzero;stroke:none" />
    </g>
  </g>
</svg>
